<?xml version="1.0" encoding="UTF-8"?>
<svg width="100%" height="100%" version="1.1" viewBox="0 0 670 570"  xmlns="http://www.w3.org/2000/svg" xmlns:xlink="http://www.w3.org/1999/xlink">
 <g>
  <path d="m258.88 267.4 157.5-157.27c4.4688-4.1602 10.781-5.6953 16.66-4.0469 5.875 1.6523 10.469 6.2461 12.121 12.121 1.6484 5.8789 0.11328 12.191-4.0469 16.66l-145.13 145.13 145.13 145.13c3.3047 3.2656 5.168 7.7188 5.168 12.367s-1.8633 9.1016-5.168 12.367c-3.2812 3.2773-7.7305 5.1172-12.367 5.1172s-9.0859-1.8398-12.367-5.1172l-157.5-158.2c-3.1641-3.2461-4.9336-7.6016-4.9336-12.133 0-4.5352 1.7695-8.8906 4.9336-12.137z"/>
  <use x="70" y="735" xlink:href="#f"/>
  <use x="220.503906" y="735" xlink:href="#e"/>
  <use x="287.953125" y="735" xlink:href="#d"/>
  <use x="350.015625" y="735" xlink:href="#c"/>
  <use x="450.105469" y="735" xlink:href="#b"/>
  <use x="498.527344" y="735" xlink:href="#a"/>
  <use x="556.546875" y="735" xlink:href="#a"/>
  <use x="611.265625" y="735" xlink:href="#a"/>
 </g>
</svg>
