<?xml version="1.0" encoding="UTF-8"?>
<svg width="700pt" height="700pt" version="1.1" viewBox="170 50 350 470" xmlns="http://www.w3.org/2000/svg" xmlns:xlink="http://www.w3.org/1999/xlink">
 <g>
  <path d="m348.77 61.426c-5.7695 0.63281-10.098 5.5703-9.9727 11.375v196h-196c-0.35156-0.015625-0.69922-0.015625-1.0508 0-2.9727 0.13672-5.7656 1.4531-7.7656 3.6484-2.0039 2.1992-3.0508 5.1055-2.9102 8.0742 0.13672 2.9727 1.4531 5.7656 3.6523 7.7695 2.1992 2 5.1016 3.0469 8.0742 2.9062h196v196c-0.042969 3 1.1172 5.8867 3.2227 8.0234 2.1055 2.1328 4.9766 3.3359 7.9766 3.3359s5.8711-1.2031 7.9766-3.3359c2.1055-2.1367 3.2656-5.0234 3.2227-8.0234v-196h196c3 0.042969 5.8867-1.1172 8.0234-3.2227 2.1328-2.1055 3.3359-4.9766 3.3359-7.9766s-1.2031-5.8711-3.3359-7.9766c-2.1367-2.1055-5.0234-3.2656-8.0234-3.2227h-196v-196c0.070312-3.2266-1.2539-6.3242-3.6328-8.5039-2.3828-2.1797-5.5859-3.2266-8.793-2.8711z"/>
  <use x="70" y="644" xlink:href="#t"/>
  <use x="90.550781" y="644" xlink:href="#b"/>
  <use x="104.359375" y="644" xlink:href="#a"/>
  <use x="123.347656" y="644" xlink:href="#e"/>
  <use x="142.242188" y="644" xlink:href="#c"/>
  <use x="155.628906" y="644" xlink:href="#a"/>
  <use x="174.617188" y="644" xlink:href="#j"/>
  <use x="204.410156" y="644" xlink:href="#f"/>
  <use x="224.453125" y="644" xlink:href="#i"/>
  <use x="252.453125" y="644" xlink:href="#e"/>
  <use x="271.34375" y="644" xlink:href="#b"/>
  <use x="285.15625" y="644" xlink:href="#c"/>
  <use x="298.539062" y="644" xlink:href="#h"/>
  <use x="324.40625" y="644" xlink:href="#d"/>
  <use x="343.640625" y="644" xlink:href="#b"/>
  <use x="357.453125" y="644" xlink:href="#s"/>
  <use x="376.070312" y="644" xlink:href="#f"/>
  <use x="396.117188" y="644" xlink:href="#a"/>
  <use x="415.105469" y="644" xlink:href="#e"/>
  <use x="434" y="644" xlink:href="#g"/>
  <use x="70" y="672" xlink:href="#r"/>
  <use x="82.183594" y="672" xlink:href="#b"/>
  <use x="95.992188" y="672" xlink:href="#d"/>
  <use x="115.226562" y="672" xlink:href="#q"/>
  <use x="154.152344" y="672" xlink:href="#c"/>
  <use x="167.535156" y="672" xlink:href="#p"/>
  <use x="187.46875" y="672" xlink:href="#a"/>
  <use x="216.207031" y="672" xlink:href="#o"/>
  <use x="239.640625" y="672" xlink:href="#d"/>
  <use x="258.878906" y="672" xlink:href="#n"/>
  <use x="278.8125" y="672" xlink:href="#g"/>
  <use x="308.492188" y="672" xlink:href="#m"/>
  <use x="329.015625" y="672" xlink:href="#b"/>
  <use x="342.820312" y="672" xlink:href="#d"/>
  <use x="362.058594" y="672" xlink:href="#l"/>
  <use x="371.65625" y="672" xlink:href="#a"/>
  <use x="390.648438" y="672" xlink:href="#k"/>
  <use x="407.242188" y="672" xlink:href="#c"/>
 </g>
</svg>
