<?xml version="1.0" encoding="UTF-8"?>
<svg width="100%" height="100%" version="1.1" viewBox="60 -10 580 585" preserveAspectRatio="none" xmlns="http://www.w3.org/2000/svg" xmlns:xlink="http://www.w3.org/1999/xlink">
 
 <g>
  <path d="m265.16 560c-8.3516 0.074219-16.637-1.4453-24.418-4.4805-25.48-10.078-44.801-38.359-43.625-64.512 0.55859-16.801-7-34.664-12.711-40.152s-23.969-12.711-40.602-11.594c-25.926 1.6836-54.934-16.574-65.742-41.66-10.805-25.09-4.3672-58.801 14.785-76.496 12.152-11.199 19.488-29.398 19.375-37.406-0.11328-8.0078-8.0078-25.816-20.551-36.848-19.711-17.25-27.273-50.852-17.246-75.996 10.023-25.145 38.359-44.801 64.512-43.625 16.801 0.55859 34.664-7 40.266-12.711 5.6016-5.7109 12.602-23.969 11.48-40.602-1.7383-26.039 16.516-54.988 41.715-65.797 25.199-10.809 58.742-4.3672 76.551 14.785l0.003906-0.003906c9.8516 10.473 22.957 17.301 37.184 19.379 8.0078 0 25.816-8.0078 36.734-20.551 17.527-19.77 51.129-27.332 76.219-17.25 25.09 10.078 44.801 38.359 43.625 64.512-0.67188 16.801 7 34.664 12.77 40.266 5.7695 5.6016 23.969 12.602 40.488 11.48 26.152-1.7344 54.992 16.52 65.855 41.551s4.3672 58.742-14.672 76.551c-12.266 11.199-19.602 29.512-19.375 37.406 0.22266 7.8945 8.0078 25.816 20.551 36.734 19.711 17.191 27.215 50.398 17.191 75.992l-0.003907 0.003906c-5.2617 12.469-13.945 23.195-25.043 30.945-11.094 7.7461-24.156 12.199-37.676 12.848h-1.793c-16.801-0.67188-34.664 7-40.152 12.711-5.4883 5.7109-12.602 23.969-11.48 40.602 1.7344 26.039-16.801 54.879-41.664 65.855-24.863 10.977-58.742 4.3672-76.441-14.672-11.199-12.152-29.176-19.488-37.297-19.488-8.0078 0-25.816 8.0078-36.734 20.551-13.551 14.207-32.445 22.07-52.078 21.672zm-117.88-151.82c21.895 0 46.258 8.2891 58.742 20.328 13.441 12.992 22.961 40.375 22.398 63.559h0.003906c0.48047 7.3516 2.957 14.43 7.1602 20.477 4.2031 6.0469 9.9766 10.836 16.695 13.852 7.0078 2.4883 14.566 2.9883 21.84 1.4453 7.2734-1.543 13.977-5.0664 19.375-10.18 15.289-17.473 40.879-30.855 59.586-31.191 18.703-0.33594 44.801 12.266 60.594 29.289 8.9609 9.6328 28.336 12.992 41.551 7.3359 13.215-5.6562 23.969-22.398 23.07-35.336-1.5117-23.07 7.1133-50.734 20.105-64.176 12.992-13.441 40.375-22.961 63.672-22.398l0.72656-0.003906c9.9102-0.47656 19.246-4.7891 26.031-12.031 6.7891-7.2383 10.488-16.836 10.324-26.754-0.16797-9.9219-4.1875-19.391-11.211-26.398-17.473-15.289-30.855-40.879-31.191-59.586-0.33594-18.703 12.266-44.801 29.289-60.594l-0.003907 0.003907c4.9375-5.5742 8.2461-12.402 9.5586-19.73 1.3164-7.3281 0.58594-14.879-2.1094-21.82-3.1914-6.7188-8.1719-12.43-14.395-16.5-6.2266-4.0703-13.453-6.3438-20.887-6.5742-23.07 1.5117-50.734-7.1133-64.176-20.215-13.441-13.105-22.961-40.488-22.398-63.672-0.49609-7.3594-3-14.445-7.2344-20.488-4.2344-6.0391-10.039-10.809-16.789-13.785-7.0078-2.4844-14.566-2.9844-21.84-1.4414-7.2734 1.5391-13.98 5.0625-19.379 10.18-15.344 17.527-40.934 31.023-59.637 31.023h-0.61719c-18.535 0-44.297-12.32-59.977-29.176-5.5703-4.9453-12.398-8.2539-19.73-9.5703-7.3281-1.3125-14.879-0.57813-21.82 2.1211-13.105 5.6016-23.969 22.398-23.07 35.336 1.5117 23.184-7.1133 50.734-20.105 64.176-12.992 13.441-40.375 22.961-63.559 22.121h-0.67578c-7.2578 0.64062-14.207 3.2266-20.121 7.4844-5.9102 4.2578-10.566 10.027-13.477 16.707-2.4883 7.0078-2.9883 14.566-1.4453 21.84 1.543 7.2734 5.0664 13.98 10.18 19.375 17.473 15.289 30.855 40.879 31.191 59.695 0.33594 18.816-12.266 44.801-29.176 60.594-4.9375 5.5508-8.2461 12.359-9.5625 19.672-1.3125 7.3125-0.58203 14.844 2.1133 21.77 5.6016 13.105 22.398 23.969 35.336 23.07 1.6758 0.15625 3.3594 0.21094 5.043 0.16797zm202.72-9.5195c-39.512 0.027344-76.445-19.613-98.516-52.387-22.07-32.777-26.375-74.387-11.488-110.98 14.887-36.602 47.016-63.391 85.695-71.457 38.68-8.0664 78.836 3.6484 107.11 31.25 28.273 27.598 40.957 67.461 33.824 106.33-7.1289 38.863-33.133 71.629-69.363 87.395l-6.1055-14.223 6.1055 14.223c-14.922 6.4648-31.004 9.8164-47.266 9.8555zm0-206.02c-11.895-0.007813-23.66 2.4492-34.551 7.2227-26.641 11.625-45.742 35.746-50.945 64.34-5.207 28.594 4.168 57.902 25 78.168 20.832 20.266 50.387 28.824 78.824 22.832 28.438-5.9883 52.027-25.75 62.91-52.695 10.883-26.949 7.6367-57.547-8.6641-81.609s-43.512-38.426-72.574-38.312z"/>
  <use x="70" y="644" xlink:href="#t"/>
  <use x="90.550781" y="644" xlink:href="#d"/>
  <use x="104.359375" y="644" xlink:href="#a"/>
  <use x="123.347656" y="644" xlink:href="#k"/>
  <use x="142.242188" y="644" xlink:href="#c"/>
  <use x="155.628906" y="644" xlink:href="#a"/>
  <use x="174.617188" y="644" xlink:href="#j"/>
  <use x="204.410156" y="644" xlink:href="#i"/>
  <use x="224.453125" y="644" xlink:href="#h"/>
  <use x="252.453125" y="644" xlink:href="#g"/>
  <use x="271.796875" y="644" xlink:href="#f"/>
  <use x="288.394531" y="644" xlink:href="#b"/>
  <use x="307.632812" y="644" xlink:href="#e"/>
  <use x="327.5625" y="644" xlink:href="#s"/>
  <use x="70" y="672" xlink:href="#r"/>
  <use x="82.183594" y="672" xlink:href="#d"/>
  <use x="95.992188" y="672" xlink:href="#b"/>
  <use x="115.226562" y="672" xlink:href="#q"/>
  <use x="154.152344" y="672" xlink:href="#c"/>
  <use x="167.535156" y="672" xlink:href="#p"/>
  <use x="187.46875" y="672" xlink:href="#a"/>
  <use x="216.207031" y="672" xlink:href="#o"/>
  <use x="239.640625" y="672" xlink:href="#b"/>
  <use x="258.878906" y="672" xlink:href="#n"/>
  <use x="278.8125" y="672" xlink:href="#e"/>
  <use x="308.492188" y="672" xlink:href="#m"/>
  <use x="329.015625" y="672" xlink:href="#d"/>
  <use x="342.820312" y="672" xlink:href="#b"/>
  <use x="362.058594" y="672" xlink:href="#l"/>
  <use x="371.65625" y="672" xlink:href="#a"/>
  <use x="390.648438" y="672" xlink:href="#f"/>
  <use x="407.242188" y="672" xlink:href="#c"/>
 </g>
</svg>
